<?xml version="1.0" encoding="UTF-8" standalone="no"?>
<!-- Created with Inkscape (http://www.inkscape.org/) -->

<svg
   width="297mm"
   height="210mm"
   viewBox="0 0 297 210"
   version="1.1"
   id="svg1028"
   inkscape:version="1.2.2 (732a01da63, 2022-12-09)"
   sodipodi:docname="decomp.svg"
   inkscape:export-filename="decomp.pdf"
   inkscape:export-xdpi="96"
   inkscape:export-ydpi="96"
   xmlns:inkscape="http://www.inkscape.org/namespaces/inkscape"
   xmlns:sodipodi="http://sodipodi.sourceforge.net/DTD/sodipodi-0.dtd"
   xmlns="http://www.w3.org/2000/svg"
   xmlns:svg="http://www.w3.org/2000/svg">
  <sodipodi:namedview
     id="namedview1030"
     pagecolor="#ffffff"
     bordercolor="#666666"
     borderopacity="1.0"
     inkscape:showpageshadow="2"
     inkscape:pageopacity="0.0"
     inkscape:pagecheckerboard="0"
     inkscape:deskcolor="#d1d1d1"
     inkscape:document-units="mm"
     showgrid="false"
     inkscape:zoom="1.0129245"
     inkscape:cx="412.17287"
     inkscape:cy="331.21916"
     inkscape:window-width="1920"
     inkscape:window-height="991"
     inkscape:window-x="1699"
     inkscape:window-y="-9"
     inkscape:window-maximized="1"
     inkscape:current-layer="layer1" />
  <defs
     id="defs1025" />
  <g
     inkscape:label="Layer 1"
     inkscape:groupmode="layer"
     id="layer1">
    <ellipse
       style="fill:none;stroke:#029916;stroke-width:0.600001;stroke-opacity:1"
       id="path3383"
       cx="38.438396"
       cy="69.328362"
       rx="4.8022389"
       ry="9.7891788" />
    <ellipse
       style="fill:none;stroke:#029916;stroke-width:0.600001;stroke-opacity:1"
       id="path3385"
       cx="40.919865"
       cy="119.43465"
       rx="4.8022389"
       ry="9.7891788" />
    <ellipse
       style="fill:none;stroke:#029916;stroke-width:0.600001;stroke-opacity:1"
       id="path3441"
       transform="rotate(90)"
       cx="42.435982"
       cy="-176.42307"
       rx="4.8022389"
       ry="9.7891788" />
    <ellipse
       style="fill:none;stroke:#029916;stroke-width:0.600001;stroke-opacity:1"
       id="path3443"
       transform="rotate(90)"
       cx="40.869999"
       cy="-124.05689"
       rx="4.8022389"
       ry="9.7891788" />
    <path
       style="fill:none;stroke:#000000;stroke-width:0.600001;stroke-opacity:1"
       id="path4541"
       sodipodi:type="arc"
       sodipodi:cx="67.729416"
       sodipodi:cy="37.895493"
       sodipodi:rx="46.805984"
       sodipodi:ry="27.425451"
       sodipodi:start="0.081935143"
       sodipodi:end="2.2314508"
       sodipodi:open="true"
       sodipodi:arc-type="arc"
       d="M 114.37838,40.140087 A 46.805984,27.425451 0 0 1 86.562704,63.002875 46.805984,27.425451 0 0 1 39.007684,59.550376" />
    <path
       style="fill:none;stroke:#000000;stroke-width:0.600001;stroke-opacity:1"
       id="ellipse4543"
       sodipodi:type="arc"
       sodipodi:cx="3.248188"
       sodipodi:cy="95.163513"
       sodipodi:rx="46.705479"
       sodipodi:ry="23.883308"
       sodipodi:start="5.5165756"
       sodipodi:end="0.65655678"
       sodipodi:arc-type="arc"
       d="m 36.888586,78.595726 a 46.705479,23.883308 0 0 1 3.354948,31.145994"
       sodipodi:open="true" />
    <path
       style="fill:none;stroke:#000000;stroke-width:0.600001;stroke-opacity:1"
       id="ellipse4545"
       sodipodi:type="arc"
       sodipodi:cx="151.42638"
       sodipodi:cy="10.643421"
       sodipodi:rx="33.615673"
       sodipodi:ry="33.615669"
       sodipodi:start="1.0238042"
       sodipodi:end="2.1957809"
       sodipodi:open="true"
       sodipodi:arc-type="arc"
       d="M 168.91058,39.354324 A 33.615673,33.615669 0 0 1 131.75836,37.904793" />
    <path
       style="fill:none;stroke:#029916;stroke-width:0.600001;stroke-opacity:1"
       id="path4553"
       sodipodi:type="arc"
       sodipodi:cx="14.037313"
       sodipodi:cy="143.88246"
       sodipodi:rx="0.73880595"
       sodipodi:ry="0.18470149"
       sodipodi:start="4.1791639"
       sodipodi:end="6.0201325"
       sodipodi:open="true"
       sodipodi:arc-type="arc"
       d="m 13.661769,143.7234 a 0.73880595,0.18470149 0 0 1 0.654556,-0.012 0.73880595,0.18470149 0 0 1 0.43438,0.12299" />
    <ellipse
       style="fill:none;stroke:#029916;stroke-width:0.600001;stroke-opacity:1"
       id="ellipse4621"
       transform="matrix(0,-1,-1,0,0,0)"
       cx="-147.416"
       cy="-176.29247"
       rx="4.8022389"
       ry="9.7891788" />
    <ellipse
       style="fill:none;stroke:#029916;stroke-width:0.600001;stroke-opacity:1"
       id="ellipse4623"
       transform="matrix(0,-1,-1,0,0,0)"
       cx="-148.98198"
       cy="-123.92629"
       rx="4.8022389"
       ry="9.7891788" />
    <path
       style="fill:none;stroke:#000000;stroke-width:0.600001;stroke-opacity:1"
       id="path4625"
       sodipodi:type="arc"
       sodipodi:cx="67.598816"
       sodipodi:cy="-151.9565"
       sodipodi:rx="46.805984"
       sodipodi:ry="27.425451"
       sodipodi:start="0.081935143"
       sodipodi:end="2.1568683"
       sodipodi:open="true"
       sodipodi:arc-type="arc"
       d="m 114.24778,-149.7119 a 46.805984,27.425451 0 0 1 -26.231216,22.43391 46.805984,27.425451 0 0 1 -46.3058,-1.82982"
       transform="scale(1,-1)" />
    <path
       style="fill:none;stroke:#000000;stroke-width:0.600001;stroke-opacity:1"
       id="path4627"
       sodipodi:type="arc"
       sodipodi:cx="151.29578"
       sodipodi:cy="-179.20856"
       sodipodi:rx="33.615673"
       sodipodi:ry="33.615669"
       sodipodi:start="1.0238042"
       sodipodi:end="2.1957809"
       sodipodi:open="true"
       sodipodi:arc-type="arc"
       d="m 168.77998,-150.49765 a 33.615673,33.615669 0 0 1 -37.15222,-1.44954"
       transform="scale(1,-1)" />
    <path
       style="fill:none;stroke:#000000;stroke-width:0.600001;stroke-opacity:1"
       id="ellipse4633"
       sodipodi:type="arc"
       sodipodi:cx="212.21664"
       sodipodi:cy="32.867828"
       sodipodi:rx="26.96735"
       sodipodi:ry="35.351307"
       sodipodi:start="1.6276982"
       sodipodi:end="2.872778"
       sodipodi:arc-type="arc"
       d="M 210.68298,68.16192 A 26.96735,35.351307 0 0 1 186.21779,42.256741"
       sodipodi:open="true" />
    <path
       style="fill:none;stroke:#000000;stroke-width:0.600001;stroke-opacity:1"
       id="ellipse4635"
       sodipodi:type="arc"
       sodipodi:cx="212.57513"
       sodipodi:cy="154.03201"
       sodipodi:rx="26.96735"
       sodipodi:ry="35.351307"
       sodipodi:start="3.3129829"
       sodipodi:end="4.6405725"
       sodipodi:open="true"
       sodipodi:arc-type="arc"
       d="M 186.00289,148.00276 A 26.96735,35.351307 0 0 1 210.6401,118.77183" />
    <path
       style="fill:none;stroke:#000000;stroke-width:0.600001;stroke-opacity:1"
       id="path6089"
       sodipodi:type="arc"
       sodipodi:cx="213.45584"
       sodipodi:cy="93.474113"
       sodipodi:rx="39.710819"
       sodipodi:ry="25.396454"
       sodipodi:start="4.637254"
       sodipodi:end="1.6532687"
       sodipodi:open="true"
       sodipodi:arc-type="arc"
       d="m 210.47498,68.149311 a 39.710819,25.396454 0 0 1 36.91398,12.132814 39.710819,25.396454 0 0 1 -0.15226,26.542855 39.710819,25.396454 0 0 1 -37.05219,11.95927" />
    <path
       style="fill:none;stroke:#000000;stroke-width:0.600001;stroke-opacity:1"
       id="path6094"
       sodipodi:type="arc"
       sodipodi:cx="89.499916"
       sodipodi:cy="-223.75381"
       sodipodi:rx="7.0186567"
       sodipodi:ry="7.0186567"
       sodipodi:start="5.2563125"
       sodipodi:end="1.0471976"
       sodipodi:open="true"
       sodipodi:arc-type="arc"
       d="m 93.132052,-229.75957 a 7.0186567,7.0186567 0 0 1 3.386158,6.07708 7.0186567,7.0186567 0 0 1 -3.508966,6.00701"
       transform="rotate(90)" />
    <path
       style="fill:none;stroke:#000000;stroke-width:0.600001;stroke-opacity:1"
       id="path6096"
       sodipodi:type="arc"
       sodipodi:cx="-101.74515"
       sodipodi:cy="-223.362"
       sodipodi:rx="7.0186567"
       sodipodi:ry="7.0186567"
       sodipodi:start="5.7536261"
       sodipodi:end="0.5021584"
       sodipodi:open="true"
       sodipodi:arc-type="arc"
       d="m -95.687838,-226.90749 a 7.0186567,7.0186567 0 0 1 0.09486,6.9237"
       transform="matrix(0,-1,-1,0,0,0)" />
    <path
       style="fill:none;stroke:#029916;stroke-width:0.600001;stroke-opacity:1"
       id="path6098"
       sodipodi:type="arc"
       sodipodi:cx="65.52964"
       sodipodi:cy="94.989479"
       sodipodi:rx="6.6492543"
       sodipodi:ry="29.343946"
       sodipodi:start="4.697481"
       sodipodi:end="1.544689"
       sodipodi:open="true"
       sodipodi:arc-type="arc"
       d="m 65.430517,65.648793 a 6.6492543,29.343946 0 0 1 6.746979,28.738953 6.6492543,29.343946 0 0 1 -6.474281,29.935684" />
    <path
       style="fill:none;stroke:#029916;stroke-width:0.600001;stroke-opacity:1;stroke-dasharray:1.80000293, 1.80000293;stroke-dashoffset:0"
       id="path6100"
       sodipodi:type="arc"
       sodipodi:cx="65.52964"
       sodipodi:cy="94.989479"
       sodipodi:rx="6.6492543"
       sodipodi:ry="29.343946"
       sodipodi:start="1.5356029"
       sodipodi:end="4.681035"
       sodipodi:arc-type="arc"
       d="m 65.763602,124.31526 a 6.6492543,29.343946 0 0 1 -5.876345,-13.80058 6.6492543,29.343946 0 0 1 -0.22145,-29.3602 6.6492543,29.343946 0 0 1 5.655387,-15.494525"
       sodipodi:open="true" />
    <path
       style="fill:none;stroke:#029916;stroke-width:0.607677;stroke-dasharray:1.82303, 1.82303;stroke-dashoffset:0;stroke-opacity:1"
       id="path6102"
       sodipodi:type="arc"
       sodipodi:cx="68.028717"
       sodipodi:cy="141.07478"
       sodipodi:rx="6.041317"
       sodipodi:ry="48.855965"
       sodipodi:start="1.5878766"
       sodipodi:end="4.6734558"
       sodipodi:arc-type="arc"
       d="M 67.925535,189.92362 A 6.041317,48.855965 0 0 1 61.987761,141.6086 6.041317,48.855965 0 0 1 67.793569,92.255842"
       transform="matrix(0.92156111,-0.38823333,0.39354219,0.91930656,0,0)"
       sodipodi:open="true" />
    <path
       style="fill:none;stroke:#029916;stroke-width:0.610451;stroke-dasharray:none;stroke-dashoffset:0;stroke-opacity:1"
       id="path6108"
       sodipodi:type="arc"
       sodipodi:cx="67.909523"
       sodipodi:cy="141.1601"
       sodipodi:rx="6.6659455"
       sodipodi:ry="48.950748"
       sodipodi:start="4.653404"
       sodipodi:end="1.5771"
       sodipodi:arc-type="arc"
       d="m 67.51656,92.294477 a 6.6659455,48.950748 0 0 1 6.037811,22.829623 6.6659455,48.950748 0 0 1 0.178863,49.85311 6.6659455,48.950748 0 0 1 -5.865731,25.13266"
       transform="matrix(0.92202729,-0.38712489,0.39466234,0.91882623,0,0)"
       sodipodi:open="true" />
    <path
       style="fill:none;stroke:#029916;stroke-width:0.549477;stroke-opacity:1;stroke-dasharray:1.64843094, 1.64843094;stroke-dashoffset:0"
       id="path6110"
       sodipodi:type="arc"
       sodipodi:cx="203.68648"
       sodipodi:cy="93.291641"
       sodipodi:rx="6.0893512"
       sodipodi:ry="26.873028"
       sodipodi:start="4.697481"
       sodipodi:end="1.544689"
       sodipodi:open="true"
       sodipodi:arc-type="arc"
       d="m 203.5957,66.4216 a 6.0893512,26.873028 0 0 1 6.17885,26.318977 6.0893512,26.873028 0 0 1 -5.92911,27.414933" />
    <path
       style="fill:none;stroke:#029916;stroke-width:0.549477;stroke-dasharray:none;stroke-dashoffset:0;stroke-opacity:1"
       id="path6112"
       sodipodi:type="arc"
       sodipodi:cx="203.68648"
       sodipodi:cy="93.291641"
       sodipodi:rx="6.0893512"
       sodipodi:ry="26.873028"
       sodipodi:start="1.5356029"
       sodipodi:end="4.681035"
       sodipodi:arc-type="arc"
       d="m 203.90074,120.14803 a 6.0893512,26.873028 0 0 1 -5.38153,-12.63849 6.0893512,26.873028 0 0 1 -0.2028,-26.887916 6.0893512,26.873028 0 0 1 5.17917,-14.189803"
       sodipodi:open="true" />
    <path
       style="fill:none;stroke:#029916;stroke-width:0.627009;stroke-dasharray:1.88103, 1.88103;stroke-dashoffset:0;stroke-opacity:1"
       id="path6114"
       sodipodi:type="arc"
       sodipodi:cx="148.19125"
       sodipodi:cy="94.505669"
       sodipodi:rx="6.2335081"
       sodipodi:ry="50.41021"
       sodipodi:start="1.5878766"
       sodipodi:end="4.6734558"
       sodipodi:arc-type="arc"
       d="m 148.08479,144.90853 a 6.2335081,50.41021 0 0 1 -6.12667,-49.852068 6.2335081,50.41021 0 0 1 5.9905,-50.922802"
       transform="matrix(0.99999984,5.6737826e-4,0.00520036,0.99998648,0,0)"
       sodipodi:open="true" />
    <path
       style="fill:none;stroke:#029916;stroke-width:0.629871;stroke-dasharray:none;stroke-dashoffset:0;stroke-opacity:1"
       id="path6116"
       sodipodi:type="arc"
       sodipodi:cx="148.13121"
       sodipodi:cy="94.499428"
       sodipodi:rx="6.8780079"
       sodipodi:ry="50.508011"
       sodipodi:start="4.653404"
       sodipodi:end="1.5771"
       sodipodi:arc-type="arc"
       d="m 147.72575,44.079256 a 6.8780079,50.508011 0 0 1 6.22989,23.555895 6.8780079,50.508011 0 0 1 0.18455,51.439089 6.8780079,50.508011 0 0 1 -6.05234,25.9322"
       transform="matrix(0.99999843,0.00176986,0.00641913,0.9999794,0,0)"
       sodipodi:open="true" />
    <path
       style="fill:none;stroke:#029916;stroke-width:0.601332;stroke-dasharray:1.80399, 1.80399;stroke-dashoffset:0;stroke-opacity:1"
       id="path6118"
       sodipodi:type="arc"
       sodipodi:cx="-197.69975"
       sodipodi:cy="40.223305"
       sodipodi:rx="5.9782395"
       sodipodi:ry="48.345863"
       sodipodi:start="1.5878766"
       sodipodi:end="4.6734558"
       sodipodi:arc-type="arc"
       d="m -197.80186,88.562116 a 5.9782395,48.345863 0 0 1 -5.87578,-47.810573 5.9782395,48.345863 0 0 1 5.74519,-48.8374651"
       transform="matrix(-0.94918544,-0.31471732,-0.32018673,0.94735445,0,0)"
       sodipodi:open="true" />
    <path
       style="fill:none;stroke:#029916;stroke-width:0.604077;stroke-dasharray:none;stroke-dashoffset:0;stroke-opacity:1"
       id="path6120"
       sodipodi:type="arc"
       sodipodi:cx="-197.69902"
       sodipodi:cy="40.625488"
       sodipodi:rx="6.5963469"
       sodipodi:ry="48.439659"
       sodipodi:start="4.653404"
       sodipodi:end="1.5771"
       sodipodi:arc-type="arc"
       d="m -198.08788,-7.729929 a 6.5963469,48.439659 0 0 1 5.97477,22.591258 6.5963469,48.439659 0 0 1 0.177,49.332607 6.5963469,48.439659 0 0 1 -5.80449,24.870249"
       transform="matrix(-0.9495632,-0.31357571,-0.32134112,0.94696351,0,0)"
       sodipodi:open="true" />
  </g>
</svg>
